<?xml version="1.0" encoding="UTF-8" standalone="no"?>
<!-- Created with Inkscape (http://www.inkscape.org/) -->

<svg
   xmlns:dc="http://purl.org/dc/elements/1.1/"
   xmlns:cc="http://creativecommons.org/ns#"
   xmlns:rdf="http://www.w3.org/1999/02/22-rdf-syntax-ns#"
   xmlns:svg="http://www.w3.org/2000/svg"
   xmlns="http://www.w3.org/2000/svg"
   xmlns:sodipodi="http://sodipodi.sourceforge.net/DTD/sodipodi-0.dtd"
   xmlns:inkscape="http://www.inkscape.org/namespaces/inkscape"
   version="1.1"
   id="svg2"
   xml:space="preserve"
   width="576"
   height="576"
   viewBox="0 0 576 576"
   sodipodi:docname="Pathfinder_Logo-Flat.svg"
   inkscape:version="0.92.5 (2060ec1f9f, 2020-04-08)"><metadata
     id="metadata8"><rdf:RDF><cc:Work
         rdf:about=""><dc:format>image/svg+xml</dc:format><dc:type
           rdf:resource="http://purl.org/dc/dcmitype/StillImage" /><dc:title /></cc:Work></rdf:RDF></metadata><defs
     id="defs6"><clipPath
       clipPathUnits="userSpaceOnUse"
       id="clipPath32"><path
         d="M 82.531,92.748 H 350.429 V 358.096 H 82.531 Z"
         id="path30"
         inkscape:connector-curvature="0" /></clipPath></defs><sodipodi:namedview
     pagecolor="#ffffff"
     bordercolor="#666666"
     borderopacity="1"
     objecttolerance="10"
     gridtolerance="10"
     guidetolerance="10"
     inkscape:pageopacity="0"
     inkscape:pageshadow="2"
     inkscape:window-width="1832"
     inkscape:window-height="1016"
     id="namedview4"
     showgrid="false"
     inkscape:zoom="0.40972222"
     inkscape:cx="288"
     inkscape:cy="92.745761"
     inkscape:window-x="88"
     inkscape:window-y="27"
     inkscape:window-maximized="1"
     inkscape:current-layer="g10" /><g
     id="g10"
     inkscape:groupmode="layer"
     inkscape:label="Pathfinder_Logo-Flat"
     transform="matrix(1.3333333,0,0,-1.3333333,0,576)"><g
       id="g12"
       transform="matrix(1.5176065,0,0,1.5176065,13.197422,425.81912)"><path
         d="M 0,0 V -55.815 L 133.949,-261.7 267.898,-55.815 V 0 Z"
         style="fill:#ec1c24;fill-opacity:1;fill-rule:nonzero;stroke:none"
         id="path14"
         inkscape:connector-curvature="0" /></g><g
       id="g16"
       transform="matrix(1.5176065,0,0,1.5176065,24.301597,418.24368)"><path
         d="M 0,0 H 254.502 V -53.022 L 127.254,-248.61 0,-53.022 Z"
         style="fill:#fff100;fill-opacity:1;fill-rule:nonzero;stroke:none"
         id="path18"
         inkscape:connector-curvature="0" /></g><path
       d="M 399.05753,407.94277 H 33.904708 V 349.24175 H 399.05753 Z"
       style="fill:#ec1c24;fill-opacity:1;fill-rule:nonzero;stroke:none;stroke-width:1.5176065"
       id="path20"
       inkscape:connector-curvature="0" /><g
       id="g22"
       transform="matrix(1.5176065,0,0,1.5176065,216.47884,55.331295)"><path
         d="M 0,0 120.305,187.692 H -120.306 Z"
         style="fill:#ec1c24;fill-opacity:1;fill-rule:nonzero;stroke:none"
         id="path24"
         inkscape:connector-curvature="0" /></g><g
       id="g26"
       transform="matrix(1.5176065,0,0,1.5176065,-112.0511,-117.62106)"><g
         id="g28"
         clip-path="url(#clipPath32)"><g
           id="g34"
           transform="translate(118.5513,316.7227)"><path
             d="m 0,0 h -4.467 v 21.372 h 9.765 c 4.138,0 6.638,-2.649 6.638,-6.845 0,-1.934 -1.068,-6.817 -6.817,-6.817 L 0,7.71 Z m 4.138,11.404 c 3.336,0 3.336,2.378 3.336,3.33 0,2.084 -1.16,2.95 -3.931,2.95 H 0 v -6.28 z"
             style="fill:#fff100;fill-opacity:1;fill-rule:nonzero;stroke:none"
             id="path36"
             inkscape:connector-curvature="0" /></g><g
           id="g38"
           transform="translate(136.3813,316.7227)"><path
             d="M 0,0 H -4.704 L 2.914,21.372 H 8.068 L 15.6,0 H 10.746 L 9.379,4.403 H 1.489 Z M 2.678,8.097 H 8.126 L 5.477,16.552 H 5.419 Z"
             style="fill:#fff100;fill-opacity:1;fill-rule:nonzero;stroke:none"
             id="path40"
             inkscape:connector-curvature="0" /></g><g
           id="g42"
           transform="translate(163.3188,316.7227)"><path
             d="m 0,0 h -4.467 v 17.591 h -6.459 v 3.781 H 6.458 V 17.591 H 0 Z"
             style="fill:#fff100;fill-opacity:1;fill-rule:nonzero;stroke:none"
             id="path44"
             inkscape:connector-curvature="0" /></g><g
           id="g46"
           transform="translate(179.7144,326.3081)"><path
             d="M 0,0 V -9.586 H -4.467 V 11.792 H 0 V 3.694 h 8.334 v 8.098 H 12.8 V -9.586 H 8.334 V 0 Z"
             style="fill:#fff100;fill-opacity:1;fill-rule:nonzero;stroke:none"
             id="path48"
             inkscape:connector-curvature="0" /></g><g
           id="g50"
           transform="translate(204.3291,316.7227)"><path
             d="M 0,0 H -4.467 V 21.372 H 10.746 V 17.591 H 0 V 12.772 H 9.407 V 8.992 H 0 Z"
             style="fill:#fff100;fill-opacity:1;fill-rule:nonzero;stroke:none"
             id="path52"
             inkscape:connector-curvature="0" /></g><path
           d="m 222.749,316.72 h -4.468 v 21.372 h 4.468 z"
           style="fill:#fff100;fill-opacity:1;fill-rule:nonzero;stroke:none"
           id="path54"
           inkscape:connector-curvature="0" /><g
           id="g56"
           transform="translate(242.9268,338.0972)"><path
             d="M 0,0 H 4.167 V -21.372 H -0.3 l -8.721,15.237 h -0.058 v -15.237 h -4.166 V 0 h 4.703 l 8.484,-14.885 H 0 Z"
             style="fill:#fff100;fill-opacity:1;fill-rule:nonzero;stroke:none"
             id="path58"
             inkscape:connector-curvature="0" /></g><g
           id="g60"
           transform="translate(254.3535,338.0972)"><path
             d="m 0,0 h 9.436 c 7.203,0 8.692,-6.135 8.692,-10.181 0,-4.583 -1.813,-11.191 -8.871,-11.191 H 0 Z m 4.374,-17.684 h 4.347 c 3.635,0 4.853,3.665 4.853,7.174 0,6.314 -3.007,6.816 -4.911,6.816 H 4.374 Z"
             style="fill:#fff100;fill-opacity:1;fill-rule:nonzero;stroke:none"
             id="path62"
             inkscape:connector-curvature="0" /></g><g
           id="g64"
           transform="translate(294.5371,334.3164)"><path
             d="m 0,0 h -11.341 v -4.496 h 10.417 v -3.78 h -10.417 v -5.535 H 0.508 v -3.78 H -15.716 V 3.78 H 0 Z"
             style="fill:#fff100;fill-opacity:1;fill-rule:nonzero;stroke:none"
             id="path66"
             inkscape:connector-curvature="0" /></g><g
           id="g68"
           transform="translate(301.6504,338.0972)"><path
             d="m 0,0 h 10.804 c 5.684,0 6.729,-4.196 6.729,-6.043 0,-2.354 -1.189,-4.374 -3.307,-5.09 1.76,-0.774 2.712,-1.431 2.712,-5.42 0,-3.122 0,-3.901 0.953,-4.253 v -0.566 H 12.95 c -0.3,1.01 -0.479,2.113 -0.479,4.311 0,2.921 -0.179,4.052 -3.48,4.052 H 4.374 v -8.363 H 0 Z m 9.614,-9.408 c 2.321,0 3.451,0.803 3.451,2.921 0,1.131 -0.502,2.793 -3.122,2.793 H 4.374 v -5.714 z"
             style="fill:#fff100;fill-opacity:1;fill-rule:nonzero;stroke:none"
             id="path70"
             inkscape:connector-curvature="0" /></g><g
           id="g72"
           transform="translate(216.479,162.3604)"><path
             d="m 0,0 c -66.972,38.449 -89.509,134.156 -89.509,134.156 0,0 16.95,-8.27 44.653,-8.27 27.698,0 44.648,8.294 44.648,8.294 0,0 22.324,-8.294 44.654,-8.294 22.324,0 44.647,8.686 44.647,8.686 C 89.093,134.572 68.212,33.485 0,0"
             style="fill:#fff100;fill-opacity:1;fill-rule:nonzero;stroke:none"
             id="path74"
             inkscape:connector-curvature="0" /></g><g
           id="g76"
           transform="translate(216.6758,165.5557)"><path
             d="m 0,0 c -63.625,36.527 -86.393,127.629 -86.393,127.629 0,0 17.464,-8.033 43.776,-8.033 26.318,0 42.42,7.878 42.42,7.878 0,0 21.211,-7.878 42.415,-7.878 21.21,0 43.58,8.241 43.58,8.241 C 85.798,127.837 64.801,31.812 0,0"
             style="fill:#ec1c24;fill-opacity:1;fill-rule:nonzero;stroke:none"
             id="path78"
             inkscape:connector-curvature="0" /></g><g
           id="g80"
           transform="translate(216.6963,175.0879)"><path
             d="m 0,0 c -53.583,30.762 -74.285,104.648 -74.285,104.648 0,0 14.902,-5.275 37.059,-5.275 22.162,0 37.058,7.976 37.058,7.976 0,0 19.202,-7.976 37.064,-7.976 17.857,0 37.059,5.604 37.059,5.604 C 73.955,104.977 54.574,26.791 0,0"
             style="fill:#ffffff;fill-opacity:1;fill-rule:nonzero;stroke:none"
             id="path82"
             inkscape:connector-curvature="0" /></g><g
           id="g84"
           transform="translate(316.9736,274.7856)"><path
             d="m 0,0 1.616,3.757 -3.682,1.426 -132.218,-49.6 -3.694,9.275 c 1.657,1.2 2.505,2.903 1.951,4.294 -0.722,1.8 -3.492,2.389 -6.187,1.316 -2.701,-1.08 -4.311,-3.411 -3.59,-5.212 0.514,-1.293 2.096,-1.945 3.942,-1.818 l 4.208,-10.556 -20.01,-9.604 c -1.702,2.944 -3.786,4.716 -5.194,4.156 -1.795,-0.722 -1.801,-4.946 -0.012,-9.448 1.795,-4.496 4.71,-7.567 6.511,-6.845 1.459,0.577 1.713,3.481 0.813,6.954 l 21.147,6.614 4.253,-10.682 c -1.541,-1.19 -2.309,-2.834 -1.771,-4.179 0.715,-1.801 3.485,-2.384 6.187,-1.31 2.701,1.074 4.305,3.405 3.589,5.206 -0.537,1.344 -2.216,2.014 -4.161,1.812 l -3.786,9.506 z"
             style="fill:#0056a2;fill-opacity:1;fill-rule:nonzero;stroke:none"
             id="path86"
             inkscape:connector-curvature="0" /></g><g
           id="g88"
           transform="translate(206.5981,152.1416)"><path
             d="m 0,0 c -0.018,-0.242 -0.035,-0.502 -0.052,-0.744 -0.121,-2.384 -0.924,-4.208 -3.631,-4.208 -3.999,0 -4.259,2.54 -4.259,6.014 V 2.92 c 0.104,3.319 0.37,5.783 4.259,5.783 2.17,-0.034 3.389,-1.148 3.561,-3.37 0.036,-0.329 0.07,-0.658 0.052,-0.987 h -2.394 c -0.11,0.831 -0.024,2.395 -1.219,2.395 -1.91,0 -1.754,-2.274 -1.754,-3.284 v -3.613 c 0,-1.079 0.087,-2.833 1.754,-2.833 1.34,0 1.183,2.158 1.236,2.989 z"
             style="fill:#fff100;fill-opacity:1;fill-rule:nonzero;stroke:none"
             id="path90"
             inkscape:connector-curvature="0" /></g><g
           id="g92"
           transform="translate(208.1899,147.5029)"><path
             d="M 0,0 V 13.031 H 2.429 V 1.91 h 4.52 V 0 Z"
             style="fill:#fff100;fill-opacity:1;fill-rule:nonzero;stroke:none"
             id="path94"
             inkscape:connector-curvature="0" /></g><g
           id="g96"
           transform="translate(222.3623,160.5322)"><path
             d="m 0,0 h 2.436 v -9.084 c 0,-2.886 -0.942,-4.259 -4.123,-4.259 -3.214,0 -4.149,1.373 -4.149,4.259 V 0 h 2.43 v -8.876 c 0,-1.253 0.087,-2.505 1.737,-2.505 1.582,0 1.669,1.252 1.669,2.505 z"
             style="fill:#fff100;fill-opacity:1;fill-rule:nonzero;stroke:none"
             id="path98"
             inkscape:connector-curvature="0" /></g><g
           id="g100"
           transform="translate(226.7324,147.5029)"><path
             d="m 0,0 v 13.031 h 3.924 c 1.045,0 2.066,-0.069 2.764,-0.958 C 7.242,11.363 7.329,10.613 7.329,9.73 7.329,8.599 7.086,7.485 5.765,7 V 6.966 C 7.139,6.775 7.663,5.627 7.663,3.941 7.663,3.404 7.629,2.868 7.485,2.343 6.965,0.692 6.03,0 4.293,0 Z m 2.954,1.91 c 0.503,0 1.022,-0.052 1.46,0.139 0.658,0.294 0.745,1.148 0.745,1.805 0,1.409 -0.277,1.998 -1.789,1.998 H 2.429 V 1.91 Z M 2.886,7.768 c 0.588,0 1.349,-0.035 1.736,0.45 0.226,0.329 0.26,0.779 0.26,1.408 0,0.97 -0.208,1.461 -1.321,1.495 H 2.429 V 7.768 Z"
             style="fill:#fff100;fill-opacity:1;fill-rule:nonzero;stroke:none"
             id="path102"
             inkscape:connector-curvature="0" /></g></g></g></g></svg>